<?xml version="1.0" standalone="no"?>
<!DOCTYPE svg PUBLIC "-//W3C//DTD SVG 20010904//EN"
 "http://www.w3.org/TR/2001/REC-SVG-20010904/DTD/svg10.dtd">
<svg version="1.0" xmlns="http://www.w3.org/2000/svg"
 width="174.000000pt" height="82.000000pt" viewBox="0 0 174.000000 82.000000"
 preserveAspectRatio="xMidYMid meet">

<g transform="translate(0.000000,82.000000) scale(0.100000,-0.100000)"
fill="#000000" stroke="none">
<path d="M405 790 c3 -5 28 -22 55 -37 28 -15 50 -31 50 -35 0 -3 -24 -27 -52
-52 -46 -40 -57 -46 -83 -40 l-30 6 23 -24 c12 -13 22 -30 22 -37 0 -7 5 -9
10 -6 6 3 10 14 10 24 0 20 115 95 131 85 5 -3 9 -17 9 -32 0 -15 3 -44 6 -65
5 -30 9 -35 20 -26 17 14 18 86 4 125 -10 25 -7 31 40 72 28 24 49 46 46 49
-5 6 -65 -24 -88 -45 -16 -13 -24 -12 -82 17 -63 31 -103 40 -91 21z"/>
<path d="M129 384 c-7 -9 -22 -20 -34 -24 -14 -5 -28 -32 -48 -91 -31 -95 -35
-129 -13 -107 7 8 17 24 20 36 6 18 15 22 47 22 33 0 41 -4 49 -25 5 -14 17
-25 26 -25 19 0 18 1 -22 113 -23 65 -26 82 -16 98 15 23 9 25 -9 3z m1 -127
c0 -14 -6 -18 -27 -15 -30 3 -32 15 -11 67 l10 26 14 -30 c7 -16 13 -38 14
-48z"/>
<path d="M230 266 c0 -79 3 -96 15 -96 12 0 15 15 15 76 0 41 4 73 9 70 5 -3
17 -37 27 -76 24 -94 44 -95 74 -3 32 97 40 99 40 10 0 -62 3 -77 15 -77 12 0
15 17 15 96 l0 95 -27 -3 c-24 -3 -30 -11 -48 -71 -12 -37 -26 -68 -31 -68 -5
0 -18 31 -29 68 -18 61 -24 68 -48 71 l-27 3 0 -95z"/>
<path d="M500 265 l0 -95 55 0 c62 0 75 17 18 22 -35 3 -38 6 -38 33 0 27 4
30 33 33 43 4 41 22 -4 22 -33 0 -35 2 -32 28 3 23 8 27 41 30 57 5 44 22 -18
22 l-55 0 0 -95z"/>
<path d="M660 265 c0 -78 3 -95 15 -95 10 0 15 10 15 34 0 19 5 38 12 42 11 7
19 -1 59 -57 27 -39 42 -18 15 22 -25 36 -25 37 -6 54 47 42 9 95 -67 95 l-43
0 0 -95z m78 66 c8 -4 12 -19 10 -32 -4 -30 -51 -35 -56 -6 -8 39 15 58 46 38z"/>
<path d="M850 265 c0 -78 3 -95 15 -95 10 0 15 10 15 34 0 31 3 34 43 42 40 9
42 11 45 49 4 49 -15 65 -75 65 l-43 0 0 -95z m84 59 c22 -21 4 -54 -29 -54
-21 0 -25 5 -25 28 0 45 24 56 54 26z"/>
<path d="M1030 265 l0 -95 55 0 c30 0 55 5 55 10 0 6 -18 10 -40 10 l-40 0 0
85 c0 69 -3 85 -15 85 -12 0 -15 -17 -15 -95z"/>
<path d="M1214 313 c-9 -27 -23 -63 -31 -82 -7 -18 -13 -40 -13 -47 0 -23 26
-16 38 11 9 20 19 25 47 25 29 0 37 -5 45 -25 5 -14 17 -25 26 -25 9 0 14 6
12 13 -3 6 -17 49 -32 95 -24 71 -31 82 -51 82 -19 0 -27 -9 -41 -47z m61 -36
c7 -38 7 -39 -21 -35 -24 2 -28 7 -26 27 2 14 8 36 14 50 11 31 22 18 33 -42z"/>
<path d="M1380 265 c0 -77 3 -95 15 -95 11 0 15 18 17 78 l3 77 45 -77 c35
-60 50 -78 68 -78 21 0 22 3 22 96 0 72 -3 95 -12 91 -9 -3 -13 -25 -11 -71 0
-36 -3 -66 -8 -66 -4 0 -27 32 -50 70 -33 55 -46 70 -65 70 -24 0 -24 -2 -24
-95z"/>
<path d="M1616 344 c-3 -9 -6 -51 -6 -95 l0 -79 55 0 c30 0 55 5 55 10 0 6
-16 10 -35 10 -33 0 -35 2 -35 35 0 32 2 35 30 35 17 0 30 5 30 10 0 6 -13 10
-30 10 -27 0 -30 3 -30 30 0 28 3 30 35 30 19 0 35 5 35 10 0 6 -22 10 -49 10
-35 0 -51 -4 -55 -16z"/>
</g>
</svg>
